<svg xmlns="http://www.w3.org/2000/svg" width="400" height="280" fill="none">
  <rect width="400" height="280" rx="12" fill="#0F172A"/>
  <rect x="24" y="20" width="60" height="8" rx="4" fill="#334155"/>
  <rect x="316" y="20" width="60" height="8" rx="4" fill="#38BDF8"/>
  <rect x="80" y="65" width="240" height="16" rx="4" fill="url(#m1)"/>
  <rect x="110" y="92" width="180" height="8" rx="4" fill="#475569"/>
  <rect x="130" y="118" width="140" height="30" rx="15" fill="url(#m2)"/>
  <rect x="24" y="170" width="170" height="90" rx="12" fill="#1E293B" stroke="#334155" stroke-width="1"/>
  <rect x="206" y="170" width="170" height="90" rx="12" fill="#1E293B" stroke="#334155" stroke-width="1"/>
  <rect x="40" y="186" width="60" height="6" rx="3" fill="#38BDF8"/>
  <rect x="40" y="200" width="138" height="4" rx="2" fill="#475569"/>
  <rect x="40" y="210" width="100" height="4" rx="2" fill="#475569"/>
  <rect x="222" y="186" width="60" height="6" rx="3" fill="#A78BFA"/>
  <rect x="222" y="200" width="138" height="4" rx="2" fill="#475569"/>
  <rect x="222" y="210" width="100" height="4" rx="2" fill="#475569"/>
  <defs>
    <linearGradient id="m1" x1="80" y1="65" x2="320" y2="81" gradientUnits="userSpaceOnUse">
      <stop stop-color="#38BDF8"/><stop offset="1" stop-color="#A78BFA"/>
    </linearGradient>
    <linearGradient id="m2" x1="130" y1="118" x2="270" y2="148" gradientUnits="userSpaceOnUse">
      <stop stop-color="#38BDF8"/><stop offset="1" stop-color="#818CF8"/>
    </linearGradient>
  </defs>
</svg>