<svg xmlns="http://www.w3.org/2000/svg" width="400" height="280" fill="none">
  <rect width="400" height="280" rx="12" fill="#1C1917"/>
  <rect x="24" y="20" width="60" height="8" rx="4" fill="#44403C"/>
  <rect x="316" y="20" width="60" height="8" rx="4" fill="#D97706"/>
  <rect x="100" y="60" width="200" height="16" rx="4" fill="#FAFAF9"/>
  <rect x="140" y="86" width="120" height="8" rx="4" fill="#78716C"/>
  <rect x="24" y="116" width="352" height="1" fill="#292524"/>
  <rect x="24" y="130" width="110" height="80" rx="8" fill="url(#r1)"/>
  <rect x="145" y="130" width="110" height="80" rx="8" fill="url(#r2)"/>
  <rect x="266" y="130" width="110" height="80" rx="8" fill="url(#r3)"/>
  <rect x="40" y="196" width="78" height="6" rx="3" fill="#FAFAF9"/>
  <rect x="161" y="196" width="78" height="6" rx="3" fill="#FAFAF9"/>
  <rect x="282" y="196" width="78" height="6" rx="3" fill="#FAFAF9"/>
  <rect x="24" y="230" width="352" height="1" fill="#292524"/>
  <rect x="130" y="244" width="140" height="28" rx="14" fill="#D97706"/>
  <defs>
    <linearGradient id="r1" x1="24" y1="130" x2="134" y2="210" gradientUnits="userSpaceOnUse">
      <stop stop-color="#78350F"/><stop offset="1" stop-color="#451A03"/>
    </linearGradient>
    <linearGradient id="r2" x1="145" y1="130" x2="255" y2="210" gradientUnits="userSpaceOnUse">
      <stop stop-color="#7C2D12"/><stop offset="1" stop-color="#431407"/>
    </linearGradient>
    <linearGradient id="r3" x1="266" y1="130" x2="376" y2="210" gradientUnits="userSpaceOnUse">
      <stop stop-color="#713F12"/><stop offset="1" stop-color="#422006"/>
    </linearGradient>
  </defs>
</svg>